<?xml version="1.0" encoding="utf-8"?>
<!-- Generator: Adobe Illustrator 19.1.1, SVG Export Plug-In . SVG Version: 6.00 Build 0)  -->
<svg version="1.1" id="Layer_1" xmlns="http://www.w3.org/2000/svg" xmlns:xlink="http://www.w3.org/1999/xlink" x="0px" y="0px"
	 viewBox="0 0 1200 1200" enable-background="new 0 0 1200 1200" xml:space="preserve">
<g>
	<path fill="#FFE06A" d="M188.04,868.288h-2.039h-2.039c-7.1,0-13.554-2.904-18.233-7.584c-4.679-4.679-7.584-11.134-7.584-18.233
		v-1.494v-1.494c0-7.1,2.904-13.554,7.584-18.233c4.679-4.679,11.134-7.584,18.233-7.584h2.039h2.039
		c7.1,0,13.554,2.904,18.233,7.584c4.679,4.679,7.584,11.134,7.584,18.233v1.494v1.494c0,7.1-2.904,13.554-7.584,18.233
		C201.594,865.383,195.14,868.288,188.04,868.288z"/>
	<path fill="#FFE06A" d="M658.59,868.288h-2.039h-2.039c-7.1,0-13.554-2.904-18.234-7.584c-4.679-4.679-7.584-11.134-7.584-18.233
		v-1.494v-1.494c0-7.1,2.904-13.554,7.584-18.233c4.679-4.679,11.134-7.584,18.234-7.584h2.039h2.039
		c7.1,0,13.554,2.904,18.234,7.584c4.679,4.679,7.584,11.134,7.584,18.233v1.494v1.494c0,7.1-2.904,13.554-7.584,18.233
		C672.144,865.383,665.689,868.288,658.59,868.288z"/>
	<path fill="#FFE06A" d="M847.374,868.288h-2.039h-2.039c-7.1,0-13.554-2.904-18.234-7.584c-4.679-4.679-7.584-11.134-7.584-18.233
		v-1.494v-1.494c0-7.1,2.904-13.554,7.584-18.233s11.134-7.584,18.234-7.584h2.039h2.039c7.1,0,13.554,2.904,18.233,7.584
		s7.584,11.134,7.584,18.233v1.494v1.494c0,7.1-2.904,13.554-7.584,18.233C860.928,865.383,854.474,868.288,847.374,868.288z"/>
	<path fill="#FFE06A" d="M1020.286,868.288h-2.039h-2.039c-7.1,0-13.554-2.904-18.233-7.584c-4.679-4.679-7.584-11.134-7.584-18.233
		v-1.494v-1.494c0-7.1,2.904-13.554,7.584-18.233s11.134-7.584,18.233-7.584h2.039h2.039c7.1,0,13.554,2.904,18.233,7.584
		c4.679,4.679,7.584,11.134,7.584,18.233v1.494v1.494c0,7.1-2.904,13.554-7.584,18.233
		C1033.841,865.383,1027.386,868.288,1020.286,868.288z"/>
	<path fill="#FFE06A" d="M1071.372,842.841H593.17H114.968c-8.321,0-15.886-3.404-21.371-8.889s-8.889-13.049-8.889-21.371v-1.751
		v-1.751c0-8.321,3.404-15.886,8.889-21.371c5.485-5.484,13.049-8.889,21.371-8.889H593.17h478.202
		c8.321,0,15.886,3.404,21.371,8.889c5.484,5.485,8.889,13.049,8.889,21.371v1.751v1.751c0,8.321-3.404,15.886-8.889,21.371
		S1079.693,842.841,1071.372,842.841z"/>
	<path fill="#4A7EAF" d="M462.222,363.519c0,0-15.119,7.379-41.482,15.698s-63.97,17.576-108.947,21.331
		c-41.233,3.443-61.212-18.886-81.073-34.619c-19.861-15.733-39.605-24.869-80.367,4.96c-35.806,26.203,2.02,64.562,56.528,96.764
		s125.696,58.246,156.614,59.819c30.918,1.573,55.599-39.415,72.552-80.797C452.999,405.294,462.222,363.519,462.222,363.519z"/>
	<path fill="#FFE06A" d="M69.194,555.491c43.903,19.709,87.726,38.96,131.336,58.666c43.611,19.706,87.01,39.866,130.066,61.394
		c10.577,4.701,22.329,7.639,33.494,7.933c11.165,0.294,21.742-2.057,29.968-7.933c15.761-10.603,31.309-21.419,46.514-32.517
		c15.205-11.098,30.068-22.48,44.459-34.214c-68.452-17.926-135.745-34.511-201.88-53.038
		c-66.135-18.527-131.111-38.995-194.93-64.685c-3.507,10.223-6.86,20.757-10.039,31.517
		C75.005,533.374,72.001,544.361,69.194,555.491z"/>
	<path fill="#F8744B" d="M613.832,468.295c-23.565-24.318-44.165-50.481-63.412-73.591c-19.246-23.11-37.14-43.166-55.292-55.267
		c-31.731-21.154-61.112,4.701-92.843,34.669c-31.731,29.968-65.813,64.05-106.946,59.349s-54.06-25.855-63.462-45.834
		c-9.402-19.979-15.278-38.782-42.308-38.782c-18.138,0-36.54,15.347-53.875,40.803c-17.335,25.456-33.603,61.021-47.472,101.455
		c63.818,25.69,128.795,46.158,194.93,64.685c66.135,18.527,133.428,35.113,201.88,53.038c25.375-20.69,49.278-42.48,70.985-65.769
		S597.237,494.976,613.832,468.295z"/>
	<path fill="#FFE06A" d="M904.17,713.872c-0.4,0.666-0.809,1.326-1.216,1.987s-0.81,1.325-1.198,2
		c-40.21-13.865-80.829-25.884-121.738-36.606c-40.908-10.721-82.105-20.145-123.468-28.82c-2.691,3.38-5.352,6.794-7.972,10.251
		c-2.62,3.458-5.198,6.959-7.722,10.516c-1.175,2.35-1.175,4.701-0.588,6.758c0.588,2.057,1.763,3.819,2.938,4.995
		c42.544,15.159,85.089,29.905,127.655,44.263c42.566,14.359,85.154,28.331,127.783,41.944c0.005-9.577,0.474-19.163,1.398-28.722
		S902.346,723.344,904.17,713.872z"/>
	<path fill="#4A7EAF" d="M1066.427,616.789c-4.858-3.148-10.105-5.779-15.553-8.18s-11.095-4.574-16.754-6.805
		c-26.619,11.872-51.607,27.393-73.69,46.193c-22.083,18.801-41.261,40.881-56.261,65.874c-1.824,9.473-3.203,19.006-4.127,28.566
		s-1.393,19.145-1.398,28.722c23.845,7.615,47.704,15.12,71.579,22.516c23.875,7.396,47.767,14.681,71.68,21.856
		c67.354-12.251,103.414-42.545,107.67-79.473C1153.83,699.132,1126.284,655.572,1066.427,616.789z"/>
	<path fill="#F8744B" d="M744.059,548.416c-12.847,17.76-27.474,34.656-42.513,51.665s-30.493,34.134-44.995,52.352
		c41.363,8.675,82.559,18.099,123.468,28.82c40.908,10.721,81.528,22.74,121.738,36.606c14.937-25.978,34.364-48.897,56.889-68.369
		c22.525-19.472,48.147-35.497,75.476-47.685c-46.789-18.442-102.169-28.067-154.312-34.917
		c-52.142-6.849-101.047-10.923-134.885-18.262c-0.146-0.032-0.289-0.068-0.432-0.105
		C744.348,548.485,744.205,548.448,744.059,548.416z"/>
	<path fill="#4A7EAF" d="M643.206,684.953c-1.175-1.175-2.35-2.938-2.938-4.995c-0.588-2.057-0.588-4.407,0.588-6.758
		c16.128-22.726,34.313-43.394,52.274-63.645s35.698-40.084,50.929-61.14c-26.761-5.928-50.552-16.913-72.035-30.938
		c-21.483-14.025-40.66-31.091-58.192-49.183c-26.005,41.814-59.172,78.978-96.726,113.014s-79.494,64.943-123.047,94.242
		c-8.227,5.876-18.804,8.227-29.968,7.933c-11.165-0.294-22.917-3.232-33.494-7.933c-43.056-21.528-86.456-41.689-130.066-61.394
		c-43.611-19.706-87.433-38.957-131.336-58.666c-2.636,10.451-5.1,21.028-7.373,31.659s-4.355,21.318-6.227,31.99
		c-11.752,66.988-4.95,113.735,20.069,144.911s68.253,46.78,129.365,51.481c61.112,4.701,251.631,6.398,432.807,6.495
		s353.008-1.404,376.744-3.099c4.876-0.348,9.585-0.811,14.137-1.38c4.551-0.569,8.945-1.244,13.188-2.016
		c-66.663-20.002-133.166-40.827-199.589-62.562S709.548,708.591,643.206,684.953z"/>
	<path fill="#FFE06A" d="M583.93,592.234l0.884,0.648l0.884,0.648c4.202,3.079,9.282,4.16,14.082,3.419
		c4.799-0.74,9.318-3.301,12.397-7.503l30.332-41.394l30.332-41.394c3.079-4.202,4.16-9.282,3.419-14.082
		c-0.74-4.799-3.301-9.318-7.503-12.397l-0.884-0.648l-0.884-0.648c-4.202-3.079-9.282-4.16-14.082-3.419s-9.318,3.301-12.397,7.503
		l-30.332,41.394l-30.332,41.394c-3.079,4.202-4.16,9.282-3.419,14.082C577.167,584.637,579.728,589.155,583.93,592.234z"/>
	<path fill="#FFE06A" d="M671.653,578.536l0.884,0.648l0.884,0.648c4.202,3.079,9.282,4.16,14.082,3.419
		c4.799-0.74,9.318-3.301,12.397-7.503l11.977-16.345l11.977-16.345c3.079-4.202,4.16-9.282,3.419-14.082s-3.301-9.318-7.503-12.397
		l-0.884-0.648l-0.884-0.648c-4.202-3.079-9.282-4.16-14.082-3.419c-4.799,0.74-9.318,3.301-12.397,7.503l-11.977,16.345
		l-11.977,16.345c-3.079,4.202-4.16,9.282-3.419,14.082S667.45,575.456,671.653,578.536z"/>
</g>
</svg>
